<svg xmlns="http://www.w3.org/2000/svg" version="1.1" xmlns:xlink="http://www.w3.org/1999/xlink" xmlns:svgjs="http://svgjs.dev/svgjs" width="100%" height="100%" viewBox="0 0 1000 600"><rect width="1000" height="600" x="0" y="0" fill="#aa96da"/><g><rect width="333.3333333333333" height="333.3333333333333" y="116.87125799903149" fill="#c5fad5" transform="matrix(1.3206686142802884,0,0,1.3206686142802884,0,-74.45962906657192)" x="94.64902496337889"/><path d="M141.19054930828545 327.32575569623515L141.19054930828545 327.32575569623515Q141.19054930828545 322.5654089775143 141.73038244133627 318.51666047963323Q142.2947534440712 314.46791198175214 143.4234954495411 309.8793303508203L143.4234954495411 309.8793303508203L160.77176931621938 309.8793303508203L160.77176931621938 316.4554794261665Q160.77176931621938 328.3563462229685 164.37883615978615 334.6871166014734Q168.01044087303706 341.0424248496625 175.51902899638014 341.0424248496625L175.51902899638014 341.0424248496625Q188.45048631991546 341.0424248496625 188.45048631991546 328.3563462229685L188.45048631991546 328.3563462229685Q188.45048631991546 323.4242344164588 186.34022952708048 318.0013652162666Q184.22997273424548 312.55395814639024 178.09550531321355 304.7018398474694L178.09550531321355 304.7018398474694L154.80906698297633 275.4772370536732Q148.6745995619444 267.52696727601585 145.2883735455348 259.6012353680426Q141.87760965944105 251.6509655903852 141.87760965944105 241.90943132578647L141.87760965944105 241.90943132578647Q141.87760965944105 227.23578525467812 150.9811593122524 217.88685690502544Q160.06017109537967 208.5379285553728 176.2060893475357 208.5379285553728L176.2060893475357 208.5379285553728Q189.23569814980755 208.5379285553728 196.6461347944141 213.2246616650412Q204.05657143902067 217.93593264439372 207.12380514953665 225.100990592159Q210.1910388600526 232.24151067024016 210.1910388600526 239.75009879358325L210.1910388600526 239.75009879358325Q210.1910388600526 244.51044551230402 209.4549027695288 248.51011827081683Q208.71876667900494 252.5343288990138 207.7863276310081 257.34375135710286L207.7863276310081 257.34375135710286L190.51166737338218 257.34375135710286L190.51166737338218 250.276844888074Q190.51166737338218 238.6458946577975 186.80644905107889 232.33966214897669Q183.10123072877562 226.03342964015584 176.2060893475357 226.03342964015584L176.2060893475357 226.03342964015584Q169.8998568387149 226.03342964015584 166.66085804041003 229.54234500498612Q163.4463971117893 233.02672250013225 163.4463971117893 238.89127335463877L163.4463971117893 238.89127335463877Q163.4463971117893 243.89699877020084 165.50757816525604 247.99482300745015Q167.56875921872276 252.09264724469952 170.75868227765935 256.41131230910594L170.75868227765935 256.41131230910594L196.7442862731506 289.36567129488947Q203.8848063512318 298.59191029612145 207.63910041290333 306.91024811904083Q211.39339447457488 315.22858594196015 211.39339447457488 325.41180186087314L211.39339447457488 325.41180186087314Q211.39339447457488 340.69889467408467 201.65186020997618 349.606141369423Q191.91032594537748 358.5379259344456 175.69079408416903 358.5379259344456L175.69079408416903 358.5379259344456Q162.3912687153718 358.5379259344456 154.85814272234458 354.022957912566Q147.30047885963327 349.4834520210024 144.2332451491173 342.31839407323713Q141.19054930828545 335.17787399515595 141.19054930828545 327.32575569623515ZM291.01878159956937 298.07661503275483L226.75410089683882 298.07661503275483L226.75410089683882 280.55657607828766L291.01878159956937 280.55657607828766L291.01878159956937 298.07661503275483ZM313.618159578651 357.1638052321344L313.618159578651 209.81389777894745L335.97215886089134 209.81389777894745Q341.0514978855058 209.81389777894745 347.1368895671694 210.47642026041888Q353.22228124883316 211.1144048722062 359.2585971911285 213.39642675283008Q365.29491313342396 215.67844863345397 370.34971428835433 220.61056043996362Q375.3799775736005 225.51813437678916 378.39813554474813 233.98369941781323Q381.44083138558005 242.42472658915315 381.44083138558005 255.45433539142496L381.44083138558005 255.45433539142496L381.44083138558005 260.63182589477594Q381.44083138558005 274.79017670251767 378.6189763719053 284.18818079153857Q375.8216592279148 293.5861848805595 371.1594639879305 299.22989490790883Q366.49726874794624 304.8981428049424 360.7799451115445 307.6954599489329Q355.0380836054586 310.49277709292346 349.17353275095206 311.4006782712362Q343.3089818964455 312.308579449549 338.1314913930946 312.308579449549L338.1314913930946 312.308579449549L335.97215886089134 312.308579449549L335.97215886089134 357.1638052321344L313.618159578651 357.1638052321344ZM335.97215886089134 295.91728250055155L337.10090086636114 295.91728250055155Q349.2471463600044 295.91728250055155 353.8602658606204 288.67861094373393Q358.4733853612365 281.4154015172321 358.4733853612365 264.7787258713935L358.4733853612365 264.7787258713935L358.4733853612365 251.47920050259629Q358.4733853612365 238.37597809127212 354.1301824271459 232.1678970611878Q349.76244162337116 225.9598160311035 337.10090086636114 225.9598160311035L337.10090086636114 225.9598160311035L335.97215886089134 225.9598160311035L335.97215886089134 295.91728250055155Z " fill="#aa96da" transform="matrix(1.3206686142802884,0,0,1.3206686142802884,0,-74.45962906657192)"/><path d="M547.9932728539634 358.53793230102536L547.9932728539634 358.53793230102536Q542.6413905599156 358.53793230102536 536.3075115146662 356.9667374991031Q529.973632469417 355.42009261596087 524.2780513124485 350.5101088599536Q518.5579202367003 345.57557518516643 514.9490821760348 335.70650783559194Q511.3156941965895 325.8128905672374 511.3156941965895 309.24169539071295L511.3156941965895 309.24169539071295L511.3156941965895 257.0240181455763Q511.3156941965895 243.7425120855768 513.7706860745932 234.9045413247638Q516.2502278713769 226.0420206451708 520.2518646325227 220.739238188683Q524.2780513124485 215.4364557321952 529.1389352308956 212.80961442273136Q534.024369068123 210.15822319448748 538.8852529865701 209.34807587474626Q543.7706868237972 208.5379285550051 547.9196230976233 208.5379285550051L547.9196230976233 208.5379285550051Q559.3107854115601 208.5379285550051 565.9638134009499 212.76051458517128Q572.5922914715595 216.98310061533746 575.4891818876038 224.10257706154795Q578.386072303648 231.2220535077584 578.386072303648 239.76542524321096L578.386072303648 239.76542524321096Q578.386072303648 244.52810948653794 577.6495747402471 248.5297462476838Q576.913077176846 252.55593292760975 575.9556303444244 257.3677170084968L575.9556303444244 257.3677170084968L558.6970374420591 257.3677170084968L558.6970374420591 250.29734039984638Q558.6970374420591 226.0420206451708 547.3058751281224 226.0420206451708L547.3058751281224 226.0420206451708Q541.1929453518935 226.0420206451708 537.9523560729288 231.34480310165858Q534.711766793964 236.6721354769264 534.711766793964 250.81288869422715L534.711766793964 250.81288869422715L534.711766793964 317.26951883178475Q534.711766793964 330.992923429825 537.9523560729288 336.00110686095235Q541.1929453518935 341.0092902920797 547.9932728539634 341.0092902920797L547.9932728539634 341.0092902920797Q552.7559570972903 341.0092902920797 555.849246863575 337.00765353093374Q558.9670865486396 332.98146685100784 558.9670865486396 324.0943962526348L558.9670865486396 324.0943962526348L558.9670865486396 310.10094254801425L578.5579217351083 310.10094254801425L578.5579217351083 323.7506973897143Q578.5579217351083 341.4511888301203 570.7019477254967 349.99456056557284Q562.8459737158853 358.53793230102536 547.9932728539634 358.53793230102536ZM635.6855827362522 357.23678660568345L610.1536672050147 357.23678660568345L583.3942557347755 209.81452433156696L606.2502301189891 209.81452433156696L622.4777264325928 326.94218683111893L623.4351732650143 326.94218683111893L639.7363193349581 209.81452433156696L662.5431938816116 209.81452433156696L635.6855827362522 357.23678660568345Z " fill="#c5fad5" transform="matrix(1.3206686142802884,0,0,1.3206686142802884,0,-74.45962906657192)"/></g></svg>